<svg id="OBJECTS" xmlns="http://www.w3.org/2000/svg" viewBox="0 0 512.8 387.48"><defs><style>.cls-1{fill:#fff34a;}.cls-2{fill:#a62fe8;}.cls-3{fill:#c54beb;}.cls-4{fill:#000e1b;}.cls-5{fill:#2743ab;}.cls-6{fill:#ffac9c;}.cls-7{fill:#fff;}.cls-8{fill:#274387;}.cls-9{fill:#ff919a;}.cls-10{fill:none;}</style></defs><path class="cls-1" d="M563.89,388.59a52.82,52.82,0,1,1,52.82-52.82A52.89,52.89,0,0,1,563.89,388.59Zm0-103.64a50.82,50.82,0,1,0,50.82,50.82A50.88,50.88,0,0,0,563.89,285Z" transform="translate(-118.6 -59.97)"/><path class="cls-1" d="M367.87,119a18.49,18.49,0,1,1,18.49-18.48A18.5,18.5,0,0,1,367.87,119Zm0-35a16.49,16.49,0,1,0,16.49,16.49A16.51,16.51,0,0,0,367.87,84.05Z" transform="translate(-118.6 -59.97)"/><path class="cls-1" d="M196.16,369A49.8,49.8,0,1,1,246,319.22,49.85,49.85,0,0,1,196.16,369Zm0-97.59A47.8,47.8,0,1,0,244,319.22,47.85,47.85,0,0,0,196.16,271.43Z" transform="translate(-118.6 -59.97)"/><path class="cls-1" d="M262.57,100.19a20.11,20.11,0,1,1,20.11-20.11A20.13,20.13,0,0,1,262.57,100.19Zm0-38.22a18.11,18.11,0,1,0,18.11,18.11A18.13,18.13,0,0,0,262.57,62Z" transform="translate(-118.6 -59.97)"/><path class="cls-1" d="M348.72,396.35a33.05,33.05,0,1,1,33-33.05A33.09,33.09,0,0,1,348.72,396.35Zm0-64.1a31.05,31.05,0,1,0,31,31.05A31.09,31.09,0,0,0,348.72,332.25Z" transform="translate(-118.6 -59.97)"/><path class="cls-2" d="M169.2,446s-18.63-54.61,7.35-61.84c39.34-10.95,63.84,61.43,63.84,61.43Z" transform="translate(-118.6 -59.97)"/><path class="cls-3" d="M212.14,445.45,196,417.63l4.66-30.05c-.62-.36-1.24-.7-1.87-1l-4.38,28.31L189,405.41l3.31-21.4c-.64-.18-1.29-.32-2-.46l-3,19.1-10.74-18.56-.07,0a17.68,17.68,0,0,0-1.86.64L197,423.34l-34.21-9.79c0,.71.08,1.41.14,2.12l35.51,10.16L210,445.71h1.72Z" transform="translate(-118.6 -59.97)"/><path class="cls-4" d="M604.39,391.05a58.77,58.77,0,0,0-54.73,54.49c14.54-1.07,28-6.59,38.09-17.15S604,405.63,604.39,391.05Z" transform="translate(-118.6 -59.97)"/><path class="cls-5" d="M592.06,404.34l12.28-12.23c0-.35,0-.7,0-1.06l-1.11.1L581.4,412.94c-2.6-3.85-1.76-9.81.18-15.55-.62.31-1.22.64-1.82,1-2.09,6.9-1.89,12.13.61,15.6L564,430.21c-2.51-5.61-1.52-13.32-.2-18.95-.68.8-1.35,1.61-2,2.45-1,5.6-1.41,12.39,1.13,17.57l-13.21,13.15c0,.37-.08.73-.1,1.11h0l1.11-.11,18.74-18.65a41.88,41.88,0,0,0,16.16,3.66c.5-.46,1-.95,1.46-1.44a39.66,39.66,0,0,1-16.54-3.29l20.25-20.16a15,15,0,0,0,3.42.37,31.86,31.86,0,0,0,7.92-1.18c.16-.54.32-1.08.46-1.62C599,404.14,595.18,404.8,592.06,404.34Z" transform="translate(-118.6 -59.97)"/><path class="cls-2" d="M552.77,421.25c-.59,3.71-.25,7.5-.15,11.25s-.07,7.63-1.62,11.05a11.9,11.9,0,0,1-.85,1.57H499.73a34.16,34.16,0,0,1,21-28.26c4.65-1.81,9.92-2.7,13.49-6.19,2.82-2.77,4.08-6.74,4.87-10.61s1.24-7.88,2.86-11.48,4.73-6.86,8.65-7.33c5.33-.62,10.08,4.27,11.06,9.55s-.89,10.64-3.14,15.51S553.62,416,552.77,421.25Z" transform="translate(-118.6 -59.97)"/><path class="cls-5" d="M618.5,445.12c.34-3.57-2.48-7-5.87-8.32-3.56-1.41-7.56-1.08-11.37-.64s-7.74,1-11.43-.08c-4.8-1.39-8.46-5.24-12.94-7.44a20.38,20.38,0,0,0-18,.19c-5.4,2.77-12.14,10.23-13.4,16.29Z" transform="translate(-118.6 -59.97)"/><path class="cls-5" d="M201,445.94a57.46,57.46,0,0,0-18.43-14.89c-10-4.93-21.94-6.31-32.41-2.51a33.06,33.06,0,0,0-18.81,17.4Z" transform="translate(-118.6 -59.97)"/><path class="cls-1" d="M133.84,194.39a2,2,0,0,1-2-2v-8.34a2,2,0,0,1,4,0v8.34A2,2,0,0,1,133.84,194.39Z" transform="translate(-118.6 -59.97)"/><path class="cls-1" d="M143.68,198.55a2,2,0,0,1-2-2V179.89a2,2,0,0,1,4,0v16.66A2,2,0,0,1,143.68,198.55Z" transform="translate(-118.6 -59.97)"/><path class="cls-1" d="M153.52,208.8a2,2,0,0,1-2-2V169.64a2,2,0,0,1,4,0V206.8A2,2,0,0,1,153.52,208.8Z" transform="translate(-118.6 -59.97)"/><path class="cls-1" d="M163.37,202.45a2,2,0,0,1-2-2V176a2,2,0,0,1,4,0v24.46A2,2,0,0,1,163.37,202.45Z" transform="translate(-118.6 -59.97)"/><path class="cls-1" d="M173.21,198.55a2,2,0,0,1-2-2V179.89a2,2,0,0,1,4,0v16.66A2,2,0,0,1,173.21,198.55Z" transform="translate(-118.6 -59.97)"/><path class="cls-1" d="M183.05,194.39a2,2,0,0,1-2-2v-8.34a2,2,0,0,1,4,0v8.34A2,2,0,0,1,183.05,194.39Z" transform="translate(-118.6 -59.97)"/><path class="cls-1" d="M192.9,203.08a2,2,0,0,1-2-2V175.36a2,2,0,0,1,4,0v25.72A2,2,0,0,1,192.9,203.08Z" transform="translate(-118.6 -59.97)"/><path class="cls-1" d="M202.74,216.09a2,2,0,0,1-2-2V162.35a2,2,0,0,1,4,0v51.74A2,2,0,0,1,202.74,216.09Z" transform="translate(-118.6 -59.97)"/><path class="cls-1" d="M212.58,229.45a2,2,0,0,1-2-2V149a2,2,0,0,1,4,0v78.46A2,2,0,0,1,212.58,229.45Z" transform="translate(-118.6 -59.97)"/><path class="cls-1" d="M222.43,224.52a2,2,0,0,1-2-2v-68.6a2,2,0,0,1,4,0v68.6A2,2,0,0,1,222.43,224.52Z" transform="translate(-118.6 -59.97)"/><path class="cls-1" d="M232.27,216.62a2,2,0,0,1-2-2v-52.8a2,2,0,0,1,4,0v52.8A2,2,0,0,1,232.27,216.62Z" transform="translate(-118.6 -59.97)"/><path class="cls-1" d="M242.11,204.68a2,2,0,0,1-2-2V173.76a2,2,0,0,1,4,0v28.92A2,2,0,0,1,242.11,204.68Z" transform="translate(-118.6 -59.97)"/><path class="cls-1" d="M252,198.55a2,2,0,0,1-2-2V179.89a2,2,0,0,1,4,0v16.66A2,2,0,0,1,252,198.55Z" transform="translate(-118.6 -59.97)"/><path class="cls-1" d="M261.8,194.39a2,2,0,0,1-2-2v-8.34a2,2,0,0,1,4,0v8.34A2,2,0,0,1,261.8,194.39Z" transform="translate(-118.6 -59.97)"/><path class="cls-1" d="M271.64,198.55a2,2,0,0,1-2-2V179.89a2,2,0,0,1,4,0v16.66A2,2,0,0,1,271.64,198.55Z" transform="translate(-118.6 -59.97)"/><path class="cls-1" d="M281.49,208.25a2,2,0,0,1-2-2V170.19a2,2,0,0,1,4,0v36.06A2,2,0,0,1,281.49,208.25Z" transform="translate(-118.6 -59.97)"/><path class="cls-1" d="M291.33,222.43a2,2,0,0,1-2-2V156a2,2,0,0,1,4,0v64.42A2,2,0,0,1,291.33,222.43Z" transform="translate(-118.6 -59.97)"/><path class="cls-1" d="M301.17,235.84a2,2,0,0,1-2-2V142.6a2,2,0,1,1,4,0v91.24A2,2,0,0,1,301.17,235.84Z" transform="translate(-118.6 -59.97)"/><path class="cls-1" d="M311,249.07a2,2,0,0,1-2-2V129.37a2,2,0,0,1,4,0v117.7A2,2,0,0,1,311,249.07Z" transform="translate(-118.6 -59.97)"/><path class="cls-1" d="M320.86,218.29a2,2,0,0,1-2-2V160.15a2,2,0,1,1,4,0v56.14A2,2,0,0,1,320.86,218.29Z" transform="translate(-118.6 -59.97)"/><path class="cls-1" d="M330.71,234.82a2,2,0,0,1-2-2v-89.2a2,2,0,0,1,4,0v89.2A2,2,0,0,1,330.71,234.82Z" transform="translate(-118.6 -59.97)"/><path class="cls-1" d="M340.55,243.09a2,2,0,0,1-2-2V135.35a2,2,0,1,1,4,0V241.09A2,2,0,0,1,340.55,243.09Z" transform="translate(-118.6 -59.97)"/><path class="cls-1" d="M350.39,234.82a2,2,0,0,1-2-2v-89.2a2,2,0,0,1,4,0v89.2A2,2,0,0,1,350.39,234.82Z" transform="translate(-118.6 -59.97)"/><path class="cls-1" d="M360.24,220.26a2,2,0,0,1-2-2V158.18a2,2,0,0,1,4,0v60.08A2,2,0,0,1,360.24,220.26Z" transform="translate(-118.6 -59.97)"/><path class="cls-1" d="M370.08,209.38a2,2,0,0,1-2-2V169.06a2,2,0,0,1,4,0v38.32A2,2,0,0,1,370.08,209.38Z" transform="translate(-118.6 -59.97)"/><path class="cls-1" d="M379.92,202.13a2,2,0,0,1-2-2V176.31a2,2,0,0,1,4,0v23.82A2,2,0,0,1,379.92,202.13Z" transform="translate(-118.6 -59.97)"/><path class="cls-1" d="M389.76,195a2,2,0,0,1-2-2v-9.48a2,2,0,0,1,4,0V193A2,2,0,0,1,389.76,195Z" transform="translate(-118.6 -59.97)"/><path class="cls-1" d="M399.61,193.59a2,2,0,0,1-2-2v-6.74a2,2,0,0,1,4,0v6.74A2,2,0,0,1,399.61,193.59Z" transform="translate(-118.6 -59.97)"/><path class="cls-1" d="M409.45,198.55a2,2,0,0,1-2-2V179.89a2,2,0,1,1,4,0v16.66A2,2,0,0,1,409.45,198.55Z" transform="translate(-118.6 -59.97)"/><path class="cls-1" d="M419.29,207.25a2,2,0,0,1-2-2V171.19a2,2,0,0,1,4,0v34.06A2,2,0,0,1,419.29,207.25Z" transform="translate(-118.6 -59.97)"/><path class="cls-1" d="M429.14,223.05a2,2,0,0,1-2-2V155.39a2,2,0,0,1,4,0v65.66A2,2,0,0,1,429.14,223.05Z" transform="translate(-118.6 -59.97)"/><path class="cls-1" d="M439,232.43a2,2,0,0,1-2-2V146a2,2,0,0,1,4,0v84.42A2,2,0,0,1,439,232.43Z" transform="translate(-118.6 -59.97)"/><path class="cls-1" d="M448.83,217.49a2,2,0,0,1-2-2V161a2,2,0,0,1,4,0v54.54A2,2,0,0,1,448.83,217.49Z" transform="translate(-118.6 -59.97)"/><path class="cls-1" d="M458.67,210.23a2,2,0,0,1-2-2v-40a2,2,0,1,1,4,0v40A2,2,0,0,1,458.67,210.23Z" transform="translate(-118.6 -59.97)"/><path class="cls-1" d="M468.51,198.55a2,2,0,0,1-2-2V179.89a2,2,0,0,1,4,0v16.66A2,2,0,0,1,468.51,198.55Z" transform="translate(-118.6 -59.97)"/><path class="cls-1" d="M478.36,195a2,2,0,0,1-2-2v-9.48a2,2,0,0,1,4,0V193A2,2,0,0,1,478.36,195Z" transform="translate(-118.6 -59.97)"/><path class="cls-1" d="M488.2,198.55a2,2,0,0,1-2-2V179.89a2,2,0,1,1,4,0v16.66A2,2,0,0,1,488.2,198.55Z" transform="translate(-118.6 -59.97)"/><path class="cls-1" d="M498,209.38a2,2,0,0,1-2-2V169.06a2,2,0,0,1,4,0v38.32A2,2,0,0,1,498,209.38Z" transform="translate(-118.6 -59.97)"/><path class="cls-1" d="M507.89,220.26a2,2,0,0,1-2-2V158.18a2,2,0,1,1,4,0v60.08A2,2,0,0,1,507.89,220.26Z" transform="translate(-118.6 -59.97)"/><path class="cls-1" d="M517.73,204.68a2,2,0,0,1-2-2V173.76a2,2,0,0,1,4,0v28.92A2,2,0,0,1,517.73,204.68Z" transform="translate(-118.6 -59.97)"/><path class="cls-1" d="M527.57,198.55a2,2,0,0,1-2-2V179.89a2,2,0,0,1,4,0v16.66A2,2,0,0,1,527.57,198.55Z" transform="translate(-118.6 -59.97)"/><path class="cls-1" d="M537.42,219.62a2,2,0,0,1-2-2v-58.8a2,2,0,0,1,4,0v58.8A2,2,0,0,1,537.42,219.62Z" transform="translate(-118.6 -59.97)"/><path class="cls-1" d="M547.26,231.15a2,2,0,0,1-2-2V147.29a2,2,0,1,1,4,0v81.86A2,2,0,0,1,547.26,231.15Z" transform="translate(-118.6 -59.97)"/><path class="cls-1" d="M557.1,226.66a2,2,0,0,1-2-2V151.78a2,2,0,1,1,4,0v72.88A2,2,0,0,1,557.1,226.66Z" transform="translate(-118.6 -59.97)"/><path class="cls-1" d="M567,213a2,2,0,0,1-2-2V165.49a2,2,0,0,1,4,0V211A2,2,0,0,1,567,213Z" transform="translate(-118.6 -59.97)"/><path class="cls-1" d="M576.79,201.22a2,2,0,0,1-2-2v-22a2,2,0,0,1,4,0v22A2,2,0,0,1,576.79,201.22Z" transform="translate(-118.6 -59.97)"/><path class="cls-1" d="M586.63,198.55a2,2,0,0,1-2-2V179.89a2,2,0,0,1,4,0v16.66A2,2,0,0,1,586.63,198.55Z" transform="translate(-118.6 -59.97)"/><path class="cls-1" d="M596.48,206.7a2,2,0,0,1-2-2v-33a2,2,0,0,1,4,0v33A2,2,0,0,1,596.48,206.7Z" transform="translate(-118.6 -59.97)"/><path class="cls-1" d="M606.32,198.55a2,2,0,0,1-2-2V179.89a2,2,0,0,1,4,0v16.66A2,2,0,0,1,606.32,198.55Z" transform="translate(-118.6 -59.97)"/><path class="cls-1" d="M616.16,194.39a2,2,0,0,1-2-2v-8.34a2,2,0,0,1,4,0v8.34A2,2,0,0,1,616.16,194.39Z" transform="translate(-118.6 -59.97)"/><path class="cls-6" d="M250.86,167.05l-.13-18.61s-2.69-12,4.07-15,15.66-3.19,17.46,3.63c1.2,4.52,1,9.89.45,14.85s-1.85,7.9-2.79,8.22a5.74,5.74,0,0,1-2.61-.28l1.63,8.51s1.67,5.31-5.82,6.32S250.86,167.05,250.86,167.05Z" transform="translate(-118.6 -59.97)"/><path class="cls-4" d="M267.31,159.85a24.81,24.81,0,0,1-11-7.46s-.31,8.89,11.76,11.41Z" transform="translate(-118.6 -59.97)"/><path class="cls-4" d="M268.5,146.24c0,.85.49,1.53,1.07,1.53s1.05-.7,1-1.55-.49-1.54-1.08-1.53S268.49,145.39,268.5,146.24Z" transform="translate(-118.6 -59.97)"/><path class="cls-4" d="M262.42,146c0,.85.49,1.53,1.07,1.52s1.05-.7,1-1.55-.49-1.53-1.07-1.53S262.4,145.14,262.42,146Z" transform="translate(-118.6 -59.97)"/><path class="cls-4" d="M271.23,142.76a.53.53,0,0,1-.27-.08,2.18,2.18,0,0,0-2.18,0,.5.5,0,0,1-.48-.88,3.18,3.18,0,0,1,3.2.08.5.5,0,0,1-.27.92Z" transform="translate(-118.6 -59.97)"/><path class="cls-4" d="M265.54,142.89a.46.46,0,0,1-.29-.1,2.32,2.32,0,0,0-2.48-.1.5.5,0,1,1-.52-.85,3.3,3.3,0,0,1,3.59.15.5.5,0,0,1-.3.9Z" transform="translate(-118.6 -59.97)"/><path class="cls-4" d="M266.75,153.71a3.13,3.13,0,0,1-2.86-2.18.35.35,0,0,1,.67-.22A2.35,2.35,0,0,0,267,153a.35.35,0,0,1,.07.7Z" transform="translate(-118.6 -59.97)"/><path class="cls-4" d="M267.15,151.66a.35.35,0,0,1-.34-.25A.34.34,0,0,1,267,151c.28-.09,1.09-.44,1.16-.94a7,7,0,0,0-.37-1.68,16.23,16.23,0,0,1-.79-4.3.35.35,0,0,1,.35-.35.34.34,0,0,1,.35.35,15.39,15.39,0,0,0,.76,4.11,5.89,5.89,0,0,1,.39,2c-.14,1-1.49,1.46-1.64,1.51Z" transform="translate(-118.6 -59.97)"/><path class="cls-4" d="M274.35,124.57a8.14,8.14,0,0,0-6.57,3.33,6.42,6.42,0,0,0-3.62-1.1,6.49,6.49,0,0,0-5.75,3.48,6,6,0,0,0-2-.32,6,6,0,0,0-6,5.31c-1.53-.19-3.52.12-3.78,3-.43,4.76,4,10.15,4,10.15l.05,6.79,3.86-8.13,1.67,3.17,1.13.24V142a6.06,6.06,0,0,0,4.13-2.73,6.56,6.56,0,0,0,2.59.54,6.46,6.46,0,0,0,4.18-1.53,8.16,8.16,0,1,0,6-13.67Z" transform="translate(-118.6 -59.97)"/><path class="cls-6" d="M254.85,148.25a3.15,3.15,0,1,1-3.15-3.15A3.15,3.15,0,0,1,254.85,148.25Z" transform="translate(-118.6 -59.97)"/><path class="cls-7" d="M301.44,432.1c4.29-.55,7.06-4.92,7.06-4.92h4.14c-2.42-7.15-2.47-9.36-2.47-9.36l-17.32,5.92.77,3.8h0a3.84,3.84,0,0,1,3.53,2.1A4,4,0,0,0,301.44,432.1Z" transform="translate(-118.6 -59.97)"/><path class="cls-4" d="M329.65,437.34c-5.42-2.78-14-1.53-16.74-9.34-.09-.29-.18-.55-.27-.82H308.5s-2.77,4.37-7.06,4.92a4,4,0,0,1-4.29-2.46,3.84,3.84,0,0,0-3.53-2.1h0l3,15.13H336S335.07,440.11,329.65,437.34Z" transform="translate(-118.6 -59.97)"/><path class="cls-8" d="M302.52,436.24a15.27,15.27,0,0,0-7.7-2.75l.2,1a13.94,13.94,0,0,1,7,2.54,15,15,0,0,1,4.8,5.64h1.05A16.2,16.2,0,0,0,302.52,436.24Z" transform="translate(-118.6 -59.97)"/><path class="cls-8" d="M308.5,427.18s-.12.19-.34.48c1.72,5.21,4.78,8.61,9.38,10.34a8.55,8.55,0,0,0,3,.56,7,7,0,0,0,5.51-2.52l-1.16-.29a6.62,6.62,0,0,1-7.12,1.32c-4.32-1.63-7.19-4.87-8.77-9.89Z" transform="translate(-118.6 -59.97)"/><polygon class="cls-7" points="178.06 382.69 178.73 385.72 218.08 385.72 217.4 382.69 178.06 382.69"/><path class="cls-9" d="M326.16,207.28l3.19-3.11s.16-10,1.58-10.83,3.53,13.13,3.53,13.13l2.23,6.07-6.88,7Z" transform="translate(-118.6 -59.97)"/><path class="cls-4" d="M327.53,150.51h0a6.86,6.86,0,0,1,7.72,5.88l1.58,11.75L323.24,170l-1.59-11.75A6.86,6.86,0,0,1,327.53,150.51Z" transform="translate(-118.6 -59.97)"/><rect class="cls-4" x="346.76" y="174.49" width="4" height="266.28" transform="translate(-156.66 -10.49) rotate(-7.7)"/><rect class="cls-4" x="347.75" y="439.1" width="37.97" height="4.07" transform="translate(-174.38 -6.88) rotate(-7.7)"/><path class="cls-5" d="M332,183.7h0a8.07,8.07,0,0,1-9.09-6.93l-1.09-8,16-2.17,1.09,8A8.09,8.09,0,0,1,332,183.7Z" transform="translate(-118.6 -59.97)"/><path class="cls-6" d="M338.3,195.53c-1-4.57-7.25,2.52-6.82,3.75s3.64-.2,3.64-.2-3.49,3.24-3.1,4.48,3.53,0,3.53,0-3.27,3.43-3,4.5,3.78-.64,3.78-.64-3.43,3.51-2.75,5,6.1-.26,6.1-3A95.85,95.85,0,0,0,338.3,195.53Z" transform="translate(-118.6 -59.97)"/><path class="cls-4" d="M325.65,204.76l-26.51,16.51-4.49-29.64-1.6-8.06a14.45,14.45,0,0,0-7.87-10.19l-2-1-1,56.49a13.1,13.1,0,0,0,20.42,11.08l30.87-20.81Z" transform="translate(-118.6 -59.97)"/><path class="cls-9" d="M230.37,243c3.92-.12,11.11-.18,11.24.81s-6.59,2.4-6.59,2.4Z" transform="translate(-118.6 -59.97)"/><path class="cls-7" d="M224.44,428.87l1.68-4.57,17.58.86-.45,4.51s-3.1,2-10.25,2.43S224.44,428.87,224.44,428.87Z" transform="translate(-118.6 -59.97)"/><path class="cls-4" d="M227.24,428.89a10.46,10.46,0,0,1,6.35-1.9,9.08,9.08,0,0,1,6,2.71h3.66l-2,12.95H219.83l4.62-13.76Z" transform="translate(-118.6 -59.97)"/><polygon class="cls-7" points="101.23 382.68 100.13 385.72 122.34 385.72 122.69 382.68 101.23 382.68"/><path class="cls-8" d="M220.43,442.51l.15.14h1.27a13.52,13.52,0,0,1,9.62-3.12,17.26,17.26,0,0,1,8.81,3.12h1l.06-.36a18.32,18.32,0,0,0-10-3.76A14.18,14.18,0,0,0,220.43,442.51Z" transform="translate(-118.6 -59.97)"/><path class="cls-8" d="M239.59,429.7l-.21-.21c-.35,1.85-1.89,8-7.27,8h-.19a4.37,4.37,0,0,1-3.39-1.46c-1.77-2.07-1.56-5.78-1.41-7.15h-1c-.16,1.66-.27,5.42,1.71,7.73A5.52,5.52,0,0,0,232,438.5h.22c6.11,0,7.79-6.88,8.14-8.8Z" transform="translate(-118.6 -59.97)"/><path class="cls-5" d="M282.75,246.92l31.52,177.75H291.89L261.05,275.21l-15,150.92h-23s7.81-144.32,8.23-154.81-1.73-16.91,4.47-26.37Z" transform="translate(-118.6 -59.97)"/><polygon class="cls-4" points="195.68 364.7 173.28 364.7 142.45 215.24 142.81 209.27 142.88 208.24 144.21 186.11 158.88 186.73 159.89 186.77 164.15 186.95 166.65 201.07 166.83 202.09 195.68 364.7"/><path class="cls-5" d="M263.45,268.66l34.29,156h-1L262.53,269v0a8.11,8.11,0,0,1-1.11.24l.06-1h0a5,5,0,0,0,4.27-4.74l1.16-17.2,1,0-1.17,17.36a5.9,5.9,0,0,1-3.31,5Zm22-6.6a7.54,7.54,0,0,1-6-5.75l-2-9.61v0l1-.07,0,.16,2,9.5a6.33,6.33,0,0,0,4.8,4.8Z" transform="translate(-118.6 -59.97)"/><path class="cls-2" d="M286.83,176.85l-.21-.7a5.89,5.89,0,0,0-3.73-3.89,104.33,104.33,0,0,0-12.12-3.33c-1.56-.32-6.25-1.19-6.25-1.19L250,167.8s-10.2,3-15.48,5c-.41.15-.79.31-1.16.46l-.53,33.61c.08.55,3,38.07,3,38.07l46.94,2,.77-28,.41-.93A60.06,60.06,0,0,0,286.83,176.85Z" transform="translate(-118.6 -59.97)"/><path class="cls-4" d="M241.82,181a6.43,6.43,0,0,0-8-3.72,3.59,3.59,0,0,0-.51.2l-.46,29.44c0,.1.13,1.57.32,3.86l2.41-2.23A24.92,24.92,0,0,0,241.82,181Z" transform="translate(-118.6 -59.97)"/><path class="cls-7" d="M261.29,175.35l3.66-6.8,4.41,6.43a39.14,39.14,0,0,0,1.41-6l-2.7-5.13L264.85,167l-14.13-6.7L250,167.8Z" transform="translate(-118.6 -59.97)"/><path class="cls-10" d="M232.66,208.63l0,.06.08.17Z" transform="translate(-118.6 -59.97)"/><path class="cls-6" d="M230.37,243c5.73-.19,17.66,9.52,17.33,10.55s-7.89-4.3-7.89-4.3,6.51,5.48,5.73,6.84-7.11-5-7.11-5,5.67,7.32,4.69,8-6.32-6.62-6.32-6.62,3.36,7.16,2.34,7.53-3.45-5.79-4.51-6.65-5.12,1.4-10.63-2.11Z" transform="translate(-118.6 -59.97)"/><path class="cls-2" d="M234.49,172.88a6.37,6.37,0,0,0-2.25,1.31,284.6,284.6,0,0,0-24.11,25.49c-4.89,5.95-9.82,12.46-13.63,17.63a12.49,12.49,0,0,0,2.22,17.13l25.38,20.49,8.27-12-17-17.75,22.84-21.05a24.94,24.94,0,0,0,6.27-27.55h0a6.45,6.45,0,0,0-8-3.73Z" transform="translate(-118.6 -59.97)"/><path class="cls-5" d="M271,135.35a29.34,29.34,0,0,0,11.33-4.46,8.17,8.17,0,0,0-3.69-5.11,23.66,23.66,0,0,1-25.31,5.07,6.08,6.08,0,0,0-1.81,1.76C257.3,135.7,264.48,136.41,271,135.35Z" transform="translate(-118.6 -59.97)"/><path class="cls-4" d="M354.07,43.39h0a55.77,55.77,0,0,1,55.77,55.77v98a0,0,0,0,1,0,0H298.3a0,0,0,0,1,0,0v-98a55.77,55.77,0,0,1,55.77-55.77Z"/><rect class="cls-5" x="347.07" y="317.34" width="14" height="51.76"/><rect class="cls-4" x="301.61" y="366.67" width="105.41" height="18.89"/><path class="cls-4" d="M479.68,379.32h-8.82c-1.71.23-3.44.41-5.18.53v14a90.91,90.91,0,0,0,14-1.93Z" transform="translate(-118.6 -59.97)"/><path class="cls-4" d="M472.68,387.16A91.22,91.22,0,0,1,381.56,296V258.53H563.79V296A91.22,91.22,0,0,1,472.68,387.16ZM395.56,272.53V296a77.12,77.12,0,1,0,154.23,0V272.53Z" transform="translate(-118.6 -59.97)"/><path class="cls-5" d="M538.79,161.49v-14H406.56v14h93.17v17H406.56v14h93.17v17H406.56v14h93.17V241H406.56v55a66.12,66.12,0,0,0,66.12,66.12h0A66.12,66.12,0,0,0,538.79,296V241H513.73V223.51h25.06v-14H513.73v-17h25.06v-14H513.73v-17Z" transform="translate(-118.6 -59.97)"/><path class="cls-4" d="M528.79,287.08v9c0,.35,0,.69,0,1H456.33v-10Zm-72.46,39.17v10h55.43a56.57,56.57,0,0,0,8.17-10Zm0-58.75v10h72.46v-10Zm0,39.17v10h68.52a55.3,55.3,0,0,0,2.92-10Z" transform="translate(-118.6 -59.97)"/><circle class="cls-2" cx="563.37" cy="104.72" r="29.36" transform="translate(233.66 577.46) rotate(-78.91)"/><polygon class="cls-7" points="434.77 59.35 434.99 30.16 460.16 44.94 434.77 59.35"/><path class="cls-7" d="M257,80.08H197.69a17.09,17.09,0,0,0,0,34.17h47.75l7.6,7.6v-7.6H257a17.09,17.09,0,1,0,0-34.17Z" transform="translate(-118.6 -59.97)"/><path class="cls-2" d="M257,94.1H197.69a2.5,2.5,0,0,1,0-5H257a2.5,2.5,0,0,1,0,5Z" transform="translate(-118.6 -59.97)"/><path class="cls-2" d="M232.29,105.24h-34.6a2.5,2.5,0,0,1,0-5h34.6a2.5,2.5,0,0,1,0,5Z" transform="translate(-118.6 -59.97)"/><rect class="cls-4" y="384.48" width="512.8" height="3"/></svg>