<svg id="OBJECTS" xmlns="http://www.w3.org/2000/svg" viewBox="0 0 309.01 407.32"><defs><style>.cls-1{fill:#fff;}</style></defs><path d="M238.93,110.13l-1.41,2.58v58.36h-68v59.07l2.83,46.35L170,277.9,165,276.49l-1.17.24-1.18,1.17-4.24-1.41h-6.11l-4.24,1.18V109.89l-1.41-2.59.47-2.82,13.18.7,3.76-.47,1.65,1,17.18-.71,1.64.94h36l16,.71v1.64Zm-24,35.06V129.66H168.34l2.11,8.7v6.83Z" transform="translate(-145.05 -100.7)"/><path d="M441.82,110.83,437.58,104l-62.21-3.31v74.44l-2.31,2.9,2.31,7v90.28h45.51l18.82.95,5.18-8.24,7.29-9.65,1.88-1.64V126.13ZM415.93,251.31H400.87V142.6l-1.64-14.83h27.29l-2.35,30.83v16.71l2.59,23.53-2.12.71,1.41,9.64,3.3,41.18Z" transform="translate(-145.05 -100.7)"/><path d="M215.41,433.34l-1.28,1.28-16.21-1.46H158.38l-7.65.37-1.1-7.84-1.45-17.85V392.53l-.73-3.64.91-9.48-1.1-3.28V358.64l1.83-6.19V334.59L146.9,332l1.28-1.09V300.34h59.94l3.28-.55,3.28,3.1-1.1,4.19v49.74l-4.73-.73-3.28-1.64-1.64.18-.91-1.45-3.28.91h-2l-3.82-1.1V329.86l.73-3.1v-8.2H166.21v9.65l2.55,26.61-1.09,2.55V398l-.91.91,1.46,1.46-1.1,3.09v3.1l1.1.55-.55,7.28,6,.92H197V383.6l18.4-4.73Z" transform="translate(-145.05 -100.7)"/><path d="M449.88,326.58H422.19V439.72l-14.39-1.28-3.28,1.46-3.46-.18V401.28l-.37-1.64.73-1.1L400,382.33l-.73-.91,1.83-4.38V326.58H373.54V304h76v4.19l-.55,1.64.91,1.82Z" transform="translate(-145.05 -100.7)"/><path d="M250,137.4l1.64.94V140L250,144.22l1.41,1.41v4.94L250,158.1v32.62h.14l-.14.06v.36a1.48,1.48,0,0,0,.32-.13c.16.17-.36.31-.18.6,1.09-.81,1.87-.06,3.44-.34-.49.25-.07.42.11.71.12-1,2.15.83,1.55-.41,3.08.75,7.8.06,9,.86.33.34,1.18-.22,1.72-.24l-.08.42c1.5-.76,1.17-.28,2.93-1-.73.5-.43.73.31,1.13l1.21-.87.23.65a2.4,2.4,0,0,1,1.61-.05c-.27,0-.13.06-.11.18.27-.91,2.43-.8,2.76-1.23.54.88,1.45-.22,1.85.6a2.45,2.45,0,0,1,.65-.3c-.26-.39-.35-.82.14-.63h.11l-.19-.46c-.07-.48.62.13,1.23.52.22.08.41.17.6.26h.18a.18.18,0,0,1-.11,0,1.3,1.3,0,0,0,1.06,0c1.73.78,3.86-1.07,5.78,0-.29-.11-.7-.15-.81,0,1.61-.05,3.2.68,4.22.29l-.08-.48a14.63,14.63,0,0,1,3-.34l0-.53c1.38.19,4.33-.67,5.17.43.34-.42,1.91.13,2.69,0l.2.41a6.2,6.2,0,0,0,2.26-.13c-.09,0-.19-.06-.28-.11a1.62,1.62,0,0,1,1.54,0,5,5,0,0,1,1.33.28c-.17.38-.69,0-1.33-.28a4.55,4.55,0,0,0-1.26.11c2.07.86,4,0,5.8.07l0,.12,1.83-.3c-.48.38.36-.25.92-.15a3.67,3.67,0,0,1,2.22.17l1.17,0c-1.3.28.09.6.16,1.07l.75-.38c.3.23-.48.37.07.48.5-.26,2-.24,2.44-.74a1.06,1.06,0,0,0-.47-.32c-.06,0-.06,0,0,0l-.05,0a3.11,3.11,0,0,1-.51-.13,2.68,2.68,0,0,0-.64,0l.55,0c.06-.05.4,0,0,0,0,0,0,0,.09.08a3.15,3.15,0,0,1,.51.13l.06,0a1.29,1.29,0,0,0,.21-.19l-.35,0c.35-.08.4,0,.35,0,.93.11.59-.09.55-.3,1.06.74,1.65.24,2.46,1.11-1.1-1,2.42,0,1.74-.94.78.75.53,0,1,.67-1.11-.2-2.21.49-3.1.82l.87.45c-.57.85-2-.32-2.49,0,.36-.2,1.15,0,1.17.19l-.23-.65a5.45,5.45,0,0,0-3.14.57c.84.21-1,.39-.4.85l.66-.08c.09.07.08.13,0,.19h7.15c.17-.58,1.67-.82,1.24-1.29.57.23.36.59,1.53.38.75-.38-.91-.69-1.22-.92.89-.25.89-.42.92-.6l-.08-.08h.09c.05-.14.17-.3.78-.5a3.53,3.53,0,0,0,1.26.57l1.73-.25,0,0a4.3,4.3,0,0,1-.66-.25c.07-.12.47.11.66.25s.59.15.9.21a3.16,3.16,0,0,0,1.29-.25c.55,0,.33.24.26.38a6.61,6.61,0,0,0,.92-.07,2.09,2.09,0,0,1,.51-.28c-.05-.07-.07-.12.06,0l-.06,0a.74.74,0,0,0,.13.12l.09,0c0,.08,0,.06-.09,0a3.52,3.52,0,0,1-.64.16,1,1,0,0,1-.84.16c-.12,0-.11,0-.08-.09a8.11,8.11,0,0,1-1.55-.13,5.39,5.39,0,0,0-.93.12c1.24.26-1,.63.75.51-.64.2-.32.55-1.39.58-.54-.49.34-.69.62-1.14a7.84,7.84,0,0,1-1.64,0l-.36.05.12-.06-1.8-.06v.08c.73.75,1.28,2.08.5,2.43h1.3c-.28-.1,0-.24.49-.26l0,.24a.3.3,0,0,1-.13,0h9.42l.1-.32,0-.12h0a3,3,0,0,1-.79-1,3.56,3.56,0,0,0,.65.41l-.22-.92-.63-.07-.44.15.1-.19.34,0,.56-.18-.23-.94,1.41-1.18L336.35,184l2.11-1.65v-3.53l-1.41-2.59.94-12.7-1.88-1.18.94-11.06-1.41-1.18,1.88-5.41.24-2.82-2.36-3.3V108.93a7.07,7.07,0,0,0-7.07-7.07H257a7.12,7.12,0,0,0-7.1,7.5l1.47,26.39Zm69,55.9c-.15,0-.27.09-.26.18l-1-.15c0-.16.63-.05,1.22,0a4.06,4.06,0,0,1,.78-.09A1.8,1.8,0,0,1,319,193.3Zm14.69-.52,0,.24-.73-.39,1.44-.23C334.28,192.58,334.46,192.88,333.64,192.78Zm3.29-1.65h-.32l-.73,0,.72,0-.34-.46A.94.94,0,0,1,336.93,191.13Zm-.78-1.22-.48.37-.37.19Zm-2.73-.28c-.38.19.46.41.11.72a2.49,2.49,0,0,0-1.64-.16A4.18,4.18,0,0,1,333.42,189.63Zm-6.72.87-.19.48-.65.2Zm-4.76,3.12.34-.43.21.53Zm.06-1.32c.64-.19,1.29-.39,1.11.21h.1C322.61,192.59,322.07,192.73,322,192.3Zm2.7-1.68-.07.42-.42-.17Zm-.79,1.86a2.53,2.53,0,0,0-.55,0C323.69,192.43,324,192.24,323.91,192.48Zm-2.7-1.88c-.27,0-.11.19-.09.31a1.31,1.31,0,0,0-.78-.17Zm-5.08.21c-.17-.17-.06.49-.35.38C314.22,191.48,316.45,190.27,316.13,190.81Z" transform="translate(-145.05 -100.7)"/><path d="M325.66,193.72h1.43A1.81,1.81,0,0,0,325.66,193.72Z" transform="translate(-145.05 -100.7)"/><path d="M325.2,193.72h.1v0Z" transform="translate(-145.05 -100.7)"/><path d="M330.56,191.09c.08,0,.06,0,0-.06a.14.14,0,0,1,0,.07Z" transform="translate(-145.05 -100.7)"/><path d="M277.56,191l.21.51a7,7,0,0,1,1.34-.19,2.24,2.24,0,0,1-.51-.26A1.84,1.84,0,0,0,277.56,191Z" transform="translate(-145.05 -100.7)"/><polygon points="185.5 90.32 185.49 90.32 185.49 90.33 185.5 90.32"/><path d="M330.44,191.27a.34.34,0,0,0,.08-.17C330.36,191.16,329.94,191.18,330.44,191.27Z" transform="translate(-145.05 -100.7)"/><path d="M307.23,192.4a5.46,5.46,0,0,0-2.69,1.32h5.56a1.09,1.09,0,0,1-.4-.14,2.47,2.47,0,0,0,1.59-.17l-1-.27c.8,0,1.43.55,2.6.34-.2-.41.66-1-.24-1.55-2.25-.64-1.85,1.08-4.56.92C307.86,193,308.68,192.18,307.23,192.4Zm-.35,1.2c-.39.08-.68,0-.57-.22l1.05-.15C307.52,193.41,307.13,193.48,306.88,193.6Z" transform="translate(-145.05 -100.7)"/><path d="M268,193.72h1a2.13,2.13,0,0,1,0-.94Z" transform="translate(-145.05 -100.7)"/><path d="M285,192.17l-1.29.4-.32-.35a5.11,5.11,0,0,0-2.14,1.5h2.13A18.18,18.18,0,0,0,285,192.17Z" transform="translate(-145.05 -100.7)"/><path d="M338.23,230.11V213.4l.94-2.59-1.41-.94.47-2.12-.4-1.58c-3.51,0-7,.43-10.45-.16-.35.06-.15.29,0,.45-1-.65-.92.34-1.45.43L324.5,206c-.57.28-.13.56-.17.75-2.68.18-5.29-.73-7.46-.17-.69-.34.17-.76-.74-.87,1.23,1-2.66.45-1.87,1.13-.88-1-3.28-.22-2.88-1.64-1.09-.08-.91.6-.59.73a7.19,7.19,0,0,0-3.32.39c-.7-.34-5.79.35-6.92-.72.77.69-.06.36-.8.66l.67.61-1.67-.06c-.34.06-.43,0-.43,0-.29,0,.06-.36-.65-.51-1.14,0-1.19.3-1.82.61l.18.09-.77.06c-.57,0,2-.61.15-.92,0,.17-1.11,1-1.61.53.94,0,.83-.39.48-.57L293,206l.44.77c-3.79,0-7.74-.59-11.79-.54,0-.68-2.87,0-2.51-1l.16.1c1-.1-.29-.79-1.1-.68.85.32-1.52,1,.54,1.15l-1.59.47c-.88,1.92-4.25-.16-6.66.46a.41.41,0,0,0,.24-.24c-2.15.62-4.81-.51-5.31-.21l-.19-.52a5.46,5.46,0,0,1-4.23.55c0-.09.28-.24-.07-.35a3.14,3.14,0,0,1-2.55.67l.06-.17-2.34.09c0-1.62-4,1-4.71-.77a2.92,2.92,0,0,1-1.35.52v24.08l3,39.91a7.06,7.06,0,0,0,6.7,6.52l12.84.64h19.06l.7-1.41,11.3,1.17H314.7V276l2.82,1.17h10.59l1.88.71a7.07,7.07,0,0,0,7.66-7.54l-.36-5.17,1.17-6.59-1.41-.47,2.12-1.88-2.12-3.77-.7-2.58,1.88-.95-1.18-.94.94-1.88L338.7,236l-.24-4,1.42-.94Z" transform="translate(-145.05 -100.7)"/><path d="M291.88,193.72h1.42a.53.53,0,0,0-.15-.24,14.74,14.74,0,0,0-2.6-1.18,2.79,2.79,0,0,0-.26,1.42h1.39l.17-.8Z" transform="translate(-145.05 -100.7)"/><path d="M297.39,193.72h1.17c-.11-.12-.25-.3-.2-.46A3.16,3.16,0,0,0,297.39,193.72Z" transform="translate(-145.05 -100.7)"/><path d="M312.73,191.25c-.44-.09-.67-.17,0,0Z" transform="translate(-145.05 -100.7)"/><path d="M298.47,206.56c.16-.15.33-.28-.26-.14Z" transform="translate(-145.05 -100.7)"/><path class="cls-1" d="M243.29,255.05c0,.19,0,.34,0,.52C243.3,255.37,243.3,255.2,243.29,255.05Z" transform="translate(-145.05 -100.7)"/><path class="cls-1" d="M329.67,284h0Z" transform="translate(-145.05 -100.7)"/><path class="cls-1" d="M348.07,226.46v6.67c-.21,1.2-.43,2.48-.66,2.3.45,3.18-.67,8.4,0,13.62-.11,1.16-.17-1-.29-.36a30.2,30.2,0,0,1,.17,5.89l0-.34c0,8.33-.17,11.9-.31,21.26l.25-.69c0,2-.11,2.43-.17,3.38.38,2.3,0-5.65.44-3.55a32.74,32.74,0,0,0-.25,4.43c0,1.67,0,3.58,0,5.29l-2.43-.08a8.58,8.58,0,0,1-2-.23c-3.1,0,.9.29-2.19.29l-.82-.16-.78.21c-2,0-3.05-.23-3.13-.37.49,0,1.4,0,1.93,0-2.45-.17-6.76,0-8.08,0l2.73.08c-8.44.15-18.75-.06-26.91.26l.62.12c-6.23.22-5-.13-11.83,0l.25,0c-1.37.11-3.2.17-5.07.16,1.73-.14-3.25-.27-1-.42-6.76.23-3.34.18-7.8.62l-1-.19a33.19,33.19,0,0,1-5.07.32c2.81-.17-2.18-.3,1-.52-7.16-.43-10.64.43-13.93-.2-3.29.54,6.2.3,4.36.42,1.54.18-2.72.41-5,.35s-3.89-.7-9.65-.68l1.19,0c-2.16-.14-4.23.19-6.87,0a7.34,7.34,0,0,1-1.17.14l-.93,0a1.86,1.86,0,0,0-1.06.23l4.58-.09c-.84,0-1.67.09-2.53.15l-2.32.2c0-.59-.07-1.14-.08-2s0-1.88.07-3c.08.39.19,1.86.26,2.86.12-1.44-.09-2.77,0-4.27a7,7,0,0,1,.23,2.4c0,1,0,2.25,0,3.43l.76,0,1-.1a7.7,7.7,0,0,0-1.63,0c-.06-.6-.11-1.15.15-.76a.53.53,0,0,1-.09-.21l-.07-.47c0-.33-.06-.66-.08-1,0-.71,0-1.46,0-2.27a38.38,38.38,0,0,0-.14-5.38l.26.25c0-.61-.16-1.89-.16-3l.33,2.06c-.28-3.16.24-6.09.09-9.12,0,6.34-.3,1.43-.48,4.11-.33-7.66.61-4.67.54-12.74,0,1.39-.17,3.7-.27,2.08.05-1.67.14-3.87.28-4.89-.06-5.81-.26.89-.42-1.58.31-2-.12-2.85-.22-5.39l.25,0c.17-6.61-.53-1.76-.33-7.71l.35,2.52-.09-3.11.29.64a66.57,66.57,0,0,1-.07-7.73c-.09.38-.21.28-.3-.29a11.4,11.4,0,0,1-.12-1.2c0-.32,0-.67,0-1s0-.91,0-1.42,0-.66.06-.83c-.45-.06,0-.11-.11-.13a5.32,5.32,0,0,0-.76,0h-2.47c.2,0,.3-.06.58-.09l.91-.08c.64-.05,1.39-.07,2.23-.06,0,.62,0,1.34-.1,2.12.08.25.16,1.49.24,1.53,0-.24.05-1,.06-1.71l0-2.17-6,0c.58,0,1.27,0,1.62.06l-6,.36c-1-.1-.2-.18.55-.25-1.22,0-2.07.14-3.86.17.47-.21.35-.43,2.89-.52l-2.87.11-4,.12L225,225c-.09,1.17-.22,4.29-.28,3.16,0,.45,0,.91,0,1.4s0,.89,0,1.37c0,.94.08,1.95.13,3,.09,2.08.18,4.29.1,6.39a12.63,12.63,0,0,1,.11,1.56c-.05,4-.3,7.47,0,12.16l-.37,2.66c.09,3.68.47-3.6.61,2.52.12,4.33-.32,1.62-.42,3.14a59.28,59.28,0,0,1,.27,9.88c-.07-1.32,0-2.35-.05-3.58l-.2,3c-.34-3.66-.23-6.31-.52-3.46.72.43.08,11.79.8,12.22l-.15,2c0-.57,0-.66,0-1.23-.35,3.89.52,2.89.42,7.91-.06,1.74-.16,3-.25,1.77l.18,3.89c0,.95-.1.9-.12.19v2.11a4.38,4.38,0,0,0,4.64,4.35h0c1.51.11-.76.08-.37.17l3.28-.17c1.34.18-1.38.36-3.65.34,3.07.72,2.73-.18,9.35.24l-3.1.09c2,.41,4.42.26,7.93.51-.83-.13-7-.64-3.46-.82a31.53,31.53,0,0,0,4.26-.06c0,.25,1.89.19,4.24.18l-.16.33a27.69,27.69,0,0,0,3.84-.42,10.58,10.58,0,0,1,4.09.52c4.53.05-3.14-.42,2.23-.49,3.78.13,6.43,0,10.94-.21,2.64.12-.46.21.49.31l2.34-.27c.57,0,.39.09.29.13,2-.11.16-.34,3.27-.43a16.7,16.7,0,0,1,4,.08c1,.06,2.06.12,3.13.15.54,0,1.07,0,1.59,0l.77,0,.43-.06c.47.09-.32.21-.19.34a5.53,5.53,0,0,0,.72-.11c0,.45.07.79.09,1.08,0,.57.06,1,.08,1.5.08.9.15,1.83.3,3.67l-.22,3.68c.2-2.18.44-.3.65,1.85l-1.53.15.44.05h-1.08l.64-.05-.54-.07-.7.12h-2.4c0-.1.61-.21,1.36-.33l1.74.21c1.21-.2,1.74-.43,1.38-.63a6.78,6.78,0,0,1-1,.09c.2-.06.3-.11.2-.14a.66.66,0,0,0-.3,0l-.91.11-1.1-.38-.27.15-6.32-.24c-4.53.38-8.46.94-15.65,1.1,1.79-.28.39-.45.48-.78,2,.35,5.57-.15,9.29-.08-1.94,0-1.52-.19-1-.25l-6.64.32c.15-.27-1.41-.2-3.15-.31.58.23-.31.33-1.71.38l-5.5.09c0,.55,0,1.06.05,1.5-.11.09-.23-.23-.29-1.74l1.57,0h2c-.3,0-.45-.06-.83-.07l-1,0c-.67,0-1.26,0-1.79,0,0,.71.08,1.36.14,2l.17,1.57a14.68,14.68,0,0,1,0,3.07,7.08,7.08,0,0,0-.06-1.56c.16,1.88,0,6.48-.13,5.4v-.81c0,2,0,4.8,0,7.59l4.45,0,3.21-.09a16.22,16.22,0,0,0,3.55-.33,2.71,2.71,0,0,1-1,.64l6.57-1.05h3c.38.42,1,.91-2.08,1.06a50.41,50.41,0,0,0,5.53,0c-.87-.05-2.17-.56-1-.59,3.25.43,2.26.23,6.27.6-1.3-.09.15-.69,2.2-.67-.32.09.17.59-.58.66l5.12-.6c-1.28.11-.23.51.91.68-.53-.12,4.43,0,5.79,0l-2.17-.14c5.78.09,5.71-.84,11.44-.81-.7.13-1.72.76,1.2.84.71-.17,2.37-.58,4.52-1h6.43c-2.76.4-5.9.81-8,1a22.15,22.15,0,0,0,3.84.19c1.15.16-1.76.25-2.71.26l7.53.1c-.33-.35,5.76-.35,5.48-.65l-8.19.37c-.33-.36,4.73-1,10.07-.95,1.36.14-1,.63-.9.75a50.32,50.32,0,0,1,5.56-.14l-2.27.19a33.75,33.75,0,0,0,4-.15c.64,0,1.31-.08,2-.09l1.14,0,1.45.08c.67,0,1.62.08,2.63.14a16,16,0,0,0,.11-3.37,5.78,5.78,0,0,1-.44,1.61c-.17.33-.38.42-.58.36a1,1,0,0,1-.24-.14v-4.2l.14.17v-.81l-.14,0V319.6c.31-.44.67,3.28.91,1.77a8.64,8.64,0,0,1-.25-1.67c.08-1.29.3.54.26-2.27a9.73,9.73,0,0,1-.17-2.8c0-.57,0-.93,0-.76s0,.81-.14,2.23c0-1.2,0-2.18,0-3-1.17,0-2.56-.09-4.38-.08.68.15-.83.45-2.72.66h-3.52l-.18,0-13.93-.2c-.48-.09-3-.19-1.94-.35a26.14,26.14,0,0,1-3.08.2c-3.14-.32,3.62-.05,1.23-.43a8.74,8.74,0,0,1-2.13.23l-3.3.16c0-.18,0-.34,0-.49a2.34,2.34,0,0,0-.11.64c1.09.13,4.81-.08,6.72-.19,0,.16-.49.32-1.36.46h-5.64V302.55c0-.52,0-1.15,0-1.86,4.41.06,12.28,0,17.06.17.79-.07,2-.14,2.29-.21h21.61c-.07,0-.08.07,0,.12l2.77-.12h.33c-.1.06-1,.14-.19.19a3.55,3.55,0,0,1,1.13-.19h8.76l.53,0,.77,0H359a4.39,4.39,0,0,0,4.39-4.39v-69.8ZM236.54,301.88a8.87,8.87,0,0,1,3.27-.07A18.27,18.27,0,0,1,236.54,301.88Zm42.31,11.31a16,16,0,0,1,2.8.05C280.83,313.26,279.89,313.26,278.85,313.19Z" transform="translate(-145.05 -100.7)"/><path class="cls-1" d="M225.13,290.11l0-.47Z" transform="translate(-145.05 -100.7)"/><path class="cls-1" d="M225.17,290.92l0-.38Z" transform="translate(-145.05 -100.7)"/><path class="cls-1" d="M225.15,290.54l0-.43Z" transform="translate(-145.05 -100.7)"/><path class="cls-1" d="M286,312.73l.23,0,.13-1.07c0,.28-.09.63-.13,1.07Z" transform="translate(-145.05 -100.7)"/><path class="cls-1" d="M224.93,240.21l-.24-1.49C224.69,241.06,224.81,240,224.93,240.21Z" transform="translate(-145.05 -100.7)"/><path class="cls-1" d="M337.75,284l.41,0S338,284,337.75,284Z" transform="translate(-145.05 -100.7)"/><path class="cls-1" d="M326.19,313.7h.11C325.94,313.66,326,313.66,326.19,313.7Z" transform="translate(-145.05 -100.7)"/><path class="cls-1" d="M242.53,283.5c0-.08,0-.39,0-.79l0,.26C242.51,283.56,242.53,283.52,242.53,283.5Z" transform="translate(-145.05 -100.7)"/><path class="cls-1" d="M270.12,330.16h0Z" transform="translate(-145.05 -100.7)"/><path class="cls-1" d="M265.8,330.33a19.07,19.07,0,0,1,4.28-.19l-1.43-.66Z" transform="translate(-145.05 -100.7)"/><path class="cls-1" d="M286.43,312.92h0a1.7,1.7,0,0,0-.4-.07,1,1,0,0,1,.33.14C286.45,313,286.47,312.93,286.43,312.92Z" transform="translate(-145.05 -100.7)"/><path class="cls-1" d="M225,240.49v-.14a.62.62,0,0,0,0-.14Z" transform="translate(-145.05 -100.7)"/><path class="cls-1" d="M337.45,319.75a14.93,14.93,0,0,1-.14,1.62C337.38,321.41,337.43,321,337.45,319.75Z" transform="translate(-145.05 -100.7)"/><polygon class="cls-1" points="189.18 200.02 188.31 199.97 186.25 199.95 189.18 200.02"/><path class="cls-1" d="M302.89,302.62l.33.08-.13-1.15A4.87,4.87,0,0,1,302.89,302.62Z" transform="translate(-145.05 -100.7)"/><path class="cls-1" d="M303.41,311.07c-.09-.32-.17-3.51-.24-.58C303.26,311.16,303.43,314.06,303.41,311.07Z" transform="translate(-145.05 -100.7)"/><path class="cls-1" d="M301,330.11c-2.28.14-3.47.06-2.43.42,3.78.13.9-.34,4.31-.18C303.72,330.23,300.05,330.22,301,330.11Z" transform="translate(-145.05 -100.7)"/><path class="cls-1" d="M301,330.11l1.16-.08C301.46,330.06,301.15,330.09,301,330.11Z" transform="translate(-145.05 -100.7)"/><path class="cls-1" d="M246.55,302.5l.19-.08a11.19,11.19,0,0,0-2.08-.11Z" transform="translate(-145.05 -100.7)"/><polygon class="cls-1" points="79.79 187.16 79.78 187.72 80.09 186.67 79.79 187.16"/><path class="cls-1" d="M224.44,260.24c0,1.13,0,2.45,0,3.59C224.42,261.37,224.82,259.94,224.44,260.24Z" transform="translate(-145.05 -100.7)"/><path d="M291.5,419.56l-.25-.89.38-.62v-1.74l-1.25-2.37-.22-3.8-.79-4.82-2.27-8.48.37-1-1.72-6.31-1.67-9.89L283,378.17l-2.86-14.05-.18,0,.07-.7-1.52-2.53v-5.43l-1-.83-.93-1.86-.87-2.81-.65-6.24-20.71-.9-.94,7.16-1.28,2.45v3.26l-.86,1v5.58l-1.11,3.46-5.45,28.79-4.89,40.56,16.3,1.48.71-6.19,1.89-7.66.16-.45,9.34-.37,3.27.26,1.22-.31,1.39,2.24,0,3.07.91.57-.22,4.3,3.95,4.14,2.36-.36,6.14.93,3.88,0,1.79-1.8-.56-7.59Zm-28.27-17.1,2.08-4.54v-3.31h-.85l1.77-16.16L270,402.56l-6.91.43Z" transform="translate(-145.05 -100.7)"/><polygon points="216.04 291.16 205.82 285.11 180.97 268.85 180.34 261.9 180.34 257.81 192.69 257.81 193.67 256.71 194.58 256.71 197.66 257.33 197.91 257.48 197.91 274.72 199.97 276.79 204.47 276.34 211.81 276.72 214.58 275.68 214.58 241.18 198.08 241.75 162.93 241.75 162.94 262.2 163.78 272.14 163.78 277.03 165.28 281.08 166.76 281.08 177.94 289.05 198.27 301.83 198.27 316.62 198.61 318.76 189.14 318.76 188.06 317.32 186.08 319.01 181.19 319.01 181.19 293.29 171.03 293.29 166.12 292.7 164.27 294.54 164.27 328.41 163.73 330.46 163.66 332.93 165.31 335.68 216.16 335.68 216.04 291.16"/><path d="M451.49,505.43c0,1.05.26.67.31.83C451.74,504.52,451.42,505.48,451.49,505.43Z" transform="translate(-145.05 -100.7)"/><polygon points="305.82 387.51 305.93 387.82 305.65 385.28 305.82 387.51"/><path d="M450.87,472.12c-.47,1.52.08,5.83-.09,8.7l-.11.47.38,1.3C451,479.1,450.74,474.58,450.87,472.12Z" transform="translate(-145.05 -100.7)"/><path d="M451.83,465.54c0-.19,0-.25.05-.36,0-.35,0-.83,0-1.64C451.71,464.07,451.73,461.68,451.83,465.54Z" transform="translate(-145.05 -100.7)"/><path d="M451.88,465.18c0,1.69.15-1.11,0,0Z" transform="translate(-145.05 -100.7)"/><path d="M451.78,456.41l.08,1.94.08,1.23A4.38,4.38,0,0,0,452,459c0-.12,0-.25,0-.37l0-.66c0-.86.05-1.46.09-.78C452.06,452.9,452,454.05,451.78,456.41Z" transform="translate(-145.05 -100.7)"/><path d="M451.5,455a4.34,4.34,0,0,0,0-.57c-.3,0-.77,0-1.43.1l1.38-.05Z" transform="translate(-145.05 -100.7)"/><path d="M451.55,456.79c-.07-.13-.07,0,0,.35s.07.92.14,1.7L451.5,455A3.09,3.09,0,0,0,451.55,456.79Z" transform="translate(-145.05 -100.7)"/><path d="M451.57,460.23c-.1,1.25-.16,2.87-.33.63C451.31,465.13,451.64,464.5,451.57,460.23Z" transform="translate(-145.05 -100.7)"/><path d="M450.38,471.3l-.14,1.67.16,1.45C450.32,473.7,450.53,471.19,450.38,471.3Z" transform="translate(-145.05 -100.7)"/><path d="M437.26,453.93c-.14.1.75.26.92.39l1.65-.11A14.24,14.24,0,0,1,437.26,453.93Z" transform="translate(-145.05 -100.7)"/><path d="M438.18,454.32l-2.47.17C437.91,454.51,438.32,454.43,438.18,454.32Z" transform="translate(-145.05 -100.7)"/><polygon points="305.97 354.22 306.22 358.18 306.01 354.19 303.04 354.34 304.14 354.33 305.97 354.22"/><polygon points="284.19 352.98 281.69 353.33 282.79 353.21 284.19 352.98"/><path d="M421.58,454c1-.19-1.42-.32-.32-.44a44.28,44.28,0,0,0-4.46.35A32.92,32.92,0,0,1,421.58,454Z" transform="translate(-145.05 -100.7)"/><path d="M414.61,454.07c.69,0,1.41-.12,2.19-.21C416.06,453.9,415.34,454,414.61,454.07Z" transform="translate(-145.05 -100.7)"/><path d="M431.5,454.44a6,6,0,0,0-1.94-.28l1,.28Z" transform="translate(-145.05 -100.7)"/><path d="M430.57,454.45h0l-2.09,0Z" transform="translate(-145.05 -100.7)"/><path d="M442.19,454.78c-1.45.16-4.48.33-1.55.57C441.68,455.16,440,455,442.19,454.78Z" transform="translate(-145.05 -100.7)"/><path d="M435.77,454.6l-2.82.2,2.63.06C435.52,454.79,435.05,454.68,435.77,454.6Z" transform="translate(-145.05 -100.7)"/><polygon points="287.91 354.09 286.94 354.07 286.62 354.18 287.91 354.09"/><path d="M419.1,454.34c-1.13.12-2.37.13-3.77.15,1.5.06,3.05.09,4.52.09C420.06,454.49,420.71,454.33,419.1,454.34Z" transform="translate(-145.05 -100.7)"/><path d="M424.67,454.42h-.25C424.58,454.46,424.7,454.46,424.67,454.42Z" transform="translate(-145.05 -100.7)"/><path d="M401.55,454.49l.23.05.05-.05Z" transform="translate(-145.05 -100.7)"/><path d="M420.1,454.63a13.16,13.16,0,0,0,2.45-.1c-.85,0-1.74,0-2.7.05C419.76,454.62,419.74,454.64,420.1,454.63Z" transform="translate(-145.05 -100.7)"/><path d="M410.77,454.21c.58.06,1.25.11,2,.15A8.91,8.91,0,0,0,410.77,454.21Z" transform="translate(-145.05 -100.7)"/><path d="M424,454.36l.17,0C423.84,454.28,423.89,454.31,424,454.36Z" transform="translate(-145.05 -100.7)"/><path d="M424,454.36c-.58,0-1,.11-1.49.17.68,0,1.32,0,1.87-.1Z" transform="translate(-145.05 -100.7)"/><path d="M406.71,454.57l1.07,0c-1.22-.05-2.09-.15-3.69-.36a7.1,7.1,0,0,0-2.26.31l5.25,0Z" transform="translate(-145.05 -100.7)"/><path d="M412.56,454.53c-.83.29-3.39.41-1.82.72a24.92,24.92,0,0,0,4.06-.36c-5.05.07,1.45-.16-2.2-.32,1-.05,1.89-.07,2.73-.08l-2.61-.13.11,0h0c.22,0,.29.06,0,0h-.11a.73.73,0,0,1-.23.1c-1.46-.06-.23-.07.23-.1,0,0,.06,0,.06-.05h0l-5.05.16C408.85,454.58,410.19,454.57,412.56,454.53Z" transform="translate(-145.05 -100.7)"/><path d="M437.94,456c-.16,0-.15,0-.16-.06C437.45,455.93,437.33,456,437.94,456Z" transform="translate(-145.05 -100.7)"/><path d="M433.53,455.16l-.14-.06C433.32,455.11,433.39,455.13,433.53,455.16Z" transform="translate(-145.05 -100.7)"/><path d="M438,455.55l-.36,0a37,37,0,0,1-4.15-.43,10,10,0,0,0,2.33.63,8.51,8.51,0,0,1,1.87-.12c1,.08,0,.13,0,.23C438.5,455.82,440.3,455.69,438,455.55Z" transform="translate(-145.05 -100.7)"/><path d="M424.07,455.24l-4.21.14,2.14.24-.11-.15C424.29,455.53,423.77,455.35,424.07,455.24Z" transform="translate(-145.05 -100.7)"/><polygon points="256.58 353.34 254.15 353.77 256.03 353.64 256.58 353.34"/><polygon points="250.76 353.42 249.31 353.58 250.55 353.68 250.76 353.42"/><path d="M261.2,454.41c-1.8-.24-3.81-.62-3.59-.33l.55.29A26.32,26.32,0,0,1,261.2,454.41Z" transform="translate(-145.05 -100.7)"/><path d="M339.55,454.49c-1.55-.11-2.79-.16-3.88-.17C337.55,454.48,339.06,454.73,339.55,454.49Z" transform="translate(-145.05 -100.7)"/><path d="M153.28,507.73c.76-.05,1.08-.11,1.06-.17C153.56,507.61,153.12,507.66,153.28,507.73Z" transform="translate(-145.05 -100.7)"/><path d="M335.67,454.32a20.41,20.41,0,0,0-4.49,0l.82.07C333.14,454.34,334.28,454.3,335.67,454.32Z" transform="translate(-145.05 -100.7)"/><path d="M434.85,507.52l-2.12,0C433.11,507.56,433.75,507.56,434.85,507.52Z" transform="translate(-145.05 -100.7)"/><path d="M373.58,454.26c1.16,0,.19,0,0,0Z" transform="translate(-145.05 -100.7)"/><path d="M378.76,455.53a1.14,1.14,0,0,1,.47-.14C379,455.43,378.79,455.47,378.76,455.53Z" transform="translate(-145.05 -100.7)"/><path d="M375.33,454.39c-.44,0-.94-.07-1.49-.09C374.08,454.33,374.54,454.35,375.33,454.39Z" transform="translate(-145.05 -100.7)"/><path d="M375.09,454.25l1,0C376.25,454.23,376.13,454.2,375.09,454.25Z" transform="translate(-145.05 -100.7)"/><path d="M372,454.27c.66,0,1.28,0,1.87,0-.22,0-.32,0-.26,0Z" transform="translate(-145.05 -100.7)"/><path d="M385.34,454.12h0Z" transform="translate(-145.05 -100.7)"/><path d="M385.35,454.3c-.05-.06-.41-.15,0-.18l-2.26.08A17.19,17.19,0,0,1,385.35,454.3Z" transform="translate(-145.05 -100.7)"/><path d="M408.57,456.05l-.1-.15c-1.35,0-2.35.1-1.55.16h-3.63c2.22-.23.62-1.05-1.51-1.52-.08.12-.08.22-2.67.38.9.14,5.74.33,3.56.57a17.62,17.62,0,0,1-4.48-.23c1.26.29-3.14.44-3.63.8H373.71c.13,0,.12-.08-.14-.12l-1.93.05c-1.78-.29,3.64-.4,1.19-.53a69.2,69.2,0,0,1,9.15-.36l.69.41a13.68,13.68,0,0,0-3.41-.12c1.52-.18,5.59.55,7.26,0l-2.56-.28a73.1,73.1,0,0,1,9.06-.51c-1.47-.4-.75.05-3-.42,2,.58-8.28,0-5.08.59-2.36-.55-4.08-.23-7.17-.7.1.14,1.09.26-1.62.19a5.27,5.27,0,0,1-.6.12h-.18l.15,0c-.12,0-.13,0,0,0a8.59,8.59,0,0,1,1.39.2c-1.35.31-5.67.3-7.13.46-1.61-.06.67-.15-.21-.3l-2.18.24c-.21-.29-4.28-.49-.48-.67H363.5a49.29,49.29,0,0,0-6.49-.11c-1.61-.06-4.07.33-2.66.1l-5.36.18-.05-.07c-5.29,0-10.89.49-16.94,0-1.78.07-3.62.16-6.6.08l-.58-.26c-2.28.09-6.86-.26-7.84,0-2.47-.69-11.1-.15-15.12-.27l-.15.33c-2.77,0-5.42.08-8.85.21l.21.3c-3,.24-7.62-.21-12.3-.18a9.86,9.86,0,0,1,2.35,0c-5.6-.68-11.81.48-16.89,0a16.32,16.32,0,0,1-3.06,0H263l-1.76-.16c.53.08,1,.13,1.48.16-1,0-2.45.05-3.9.12l-.62-.32h-.34c-1.42-.12-1.14.15-.38.39-.73.05-1.4.12-1.92.19-1.16-.51-3.8.18-5.38-.37-.91.25-6.37.21-7.8.65a31.09,31.09,0,0,0-4.64,0l-.69-.41-3.53.55c-2.14-.25-3-.39-.9-.7-5.14.48-4.17.18-8.55.65l.22-.26a41.21,41.21,0,0,1-5,.15c-3.49-.5-17.3-.07-26.27-.54,1.74.77-4.17-.34-4.53.26-.52-.19-1.77-.29-.32-.45-4.58.18-6.88-.29-10,.22-.53-.19,1-.27.51-.38a8.15,8.15,0,0,1-1.93.05c-.47-.11.67-.15,1.39-.23-4.67,0-5.15.59-5.49,1.12a15,15,0,0,0-5.26.13c-.83-.17-2.21-.35.7-.42-1.63,0-10-.25-10.16.17a16.28,16.28,0,0,0-2.71,0l-3.83,0h-4.43l1.36.07a6.47,6.47,0,0,1-1.88.26c0,1.24-.13,3.09-.09,4.82l0-.08c-.37,6.66.18,2.88-.24,9.45l.31-.36c.68.61-.4,5.82-.14,9.64l.18-1.38c.24,2.08-.92,5.82-1,7.92-.06.45-.1-.72-.14-1.36-.4,5.48.42.71.51,4.79-.22.75-.57-1-.61,1.78-.18,1.37.73,8,.3,11.71.17-.82.34-1.64.47.25,0,.79-.05,2.81-.13,4.76l4.93.18a15.05,15.05,0,0,0,3.17-.21c.37.05.51.1.53.14,2.22-.14,7.22-.23,8.55-.53,2.06,1.1,13.81-.53,13.76.48l6.83-.06-.17.11a37.2,37.2,0,0,0,7.44-.42c1,.07.28.16.19.22a69,69,0,0,0,12.37-.35l.55.33c1.45-.19,9.23.52,15.49.13a1.59,1.59,0,0,1-.69.15c7-.38,16.86.91,19.44-.28l4.64-.3c-6-.09.9-.52-1.57-.72,2.36-.06,6.11.36,3.2.43l-.45-.06c-1.07.62,7.47.22,7.31.64,11.83,0,23.36.31,34.44.34l-1.28-.48,3.87,0c1,.11,1.36.37-1.4.35a14.93,14.93,0,0,0,4.7-.33c5.4.19-2.1.56-.45.57l2.25,0-.51-.06a27,27,0,0,1,5.3-.38c2.1.1,1.08.3,1.9.32a4.58,4.58,0,0,0,1.27,0l4.87,0-1.95-.38c2.16-.19,4.58,0,2.33-.41,3.3.66,18.17.24,20.19.44a96.14,96.14,0,0,1,9.71-.24c-.92-.08-1.47-.51,1.72-.45-1.17.88,5.83.38,8.41,1-2.3-.42,9.07-.11,5.45-.71,2.66.08.16.34,2.18.54,6.33-.34,14,.23,21.78.11.12-.12-1.19-.29.49-.47l4.13.59c1.55-.06,1.43-.68,4.25-.27-.4-.1-1-.25,0-.28,15.34.56,31.33-.47,46.91.6-2.11-.23-.71-.25.9-.26-1-.05,0-.29-.18-.44l6.52.43c1.19-.43,7,0,7.67-.44l-2.07.07c1.51-.27.2-.58-1.22-.9h6.43v-50.2H408.57Zm-5.71,0h-4.39A23.66,23.66,0,0,1,402.86,456.06Zm-5.28,0,0,0h-.31Zm-36.72-1.52h-.09C358.88,454.41,359.55,454.46,360.86,454.52Zm-16.06.71c4.21-.13,1.83.36,2.56.29,7.92.09,6.75-1,13.32-.58,2.61.36.12.71.7,1-3.44.13-5.28-.23-7.6-.21l2.86.16A32,32,0,0,1,352,456a11.45,11.45,0,0,0,1.16.09H336.91A53.71,53.71,0,0,1,344.8,455.23Zm-25.91.54c-.13.1.26.21.56.29H316C317,455.92,318,455.82,318.89,455.77Zm-22.82-.6c.42,0,6.25.49,7.61.74a1.09,1.09,0,0,1,.43.15H300l-.09-.5-.49.5h-4.06A.9.9,0,0,1,296.07,455.17Zm-19.9.17,3.76-.25c-1,.25-2.75.6-4.72,1H269a39.17,39.17,0,0,1,6.24-.94Zm-33.83-.1a.81.81,0,0,0-.26.11C242,455.28,241.63,455.25,242.34,455.24Zm-9.24.23c-.24.15-.12.36,0,.59h-2.89Zm-61.52.08c.56.07.09.21-.68.39l.86-.1c.66.06.91.14.91.22h-2.3l.53-.12-1.12.12h-1c-.75-.12-1.4-.23-1.85-.28Zm128.91,52-.77-.09C301.45,507.36,301,507.45,300.49,507.54Z" transform="translate(-145.05 -100.7)"/><path d="M391.15,455.3c.52-.37-1.36-.25-3.23-.13.2.27,1.78.18,3.54.13Z" transform="translate(-145.05 -100.7)"/><path d="M393.5,455.29c.21-.15-.66,0-1.63,0C392.41,455.28,393,455.27,393.5,455.29Z" transform="translate(-145.05 -100.7)"/><path d="M369.77,454.48c.83.07.52-.34,1-.24C371.7,453.9,365.19,454.66,369.77,454.48Z" transform="translate(-145.05 -100.7)"/><polygon points="242.69 355.29 244.3 355.36 243.67 355.02 242.69 355.29"/><path d="M375.44,455.82l2.81.09c0-.06.32-.09.76-.11A28,28,0,0,0,375.44,455.82Z" transform="translate(-145.05 -100.7)"/><path d="M381.27,455.74c-.48,0-1.54,0-2.26.06C379.91,455.8,380.77,455.79,381.27,455.74Z" transform="translate(-145.05 -100.7)"/><path d="M343.77,456c.74-.08,1.88-.13,1.41-.24l-3.08.1C341.79,456,342.63,456,343.77,456Z" transform="translate(-145.05 -100.7)"/><polygon points="298.38 407.18 300.73 407.32 299.21 407.09 298.38 407.18"/><path d="M447.93,507.38l.55.43,1.4-.39A10.36,10.36,0,0,1,447.93,507.38Z" transform="translate(-145.05 -100.7)"/></svg>